<?xml version="1.0" standalone="no"?>
<!DOCTYPE svg PUBLIC "-//W3C//DTD SVG 20010904//EN"
 "http://www.w3.org/TR/2001/REC-SVG-20010904/DTD/svg10.dtd">
<svg version="1.0" xmlns="http://www.w3.org/2000/svg"
 width="376.000000pt" height="150.000000pt" viewBox="0 0 376.000000 150.000000"
 preserveAspectRatio="xMidYMid meet">
<metadata>
Created by potrace 1.10, written by Peter Selinger 2001-2011
</metadata>
<g transform="translate(0.000000,150.000000) scale(0.100000,-0.100000)"
fill="#00ffff" stroke="none">
<path d="M1101 1464 c-19 -8 -54 -30 -77 -49 -48 -40 -65 -73 -180 -347 -169
-405 -214 -522 -214 -558 0 -42 30 -92 73 -124 28 -20 40 -21 492 -24 l463 -3
66 166 c36 91 66 167 66 170 0 3 -126 5 -281 5 -221 0 -280 3 -276 13 2 6 42
103 88 215 l84 202 285 0 286 0 70 175 71 175 -491 0 c-412 -1 -497 -3 -525
-16z m971 -24 c-9 -45 -107 -272 -121 -279 -9 -4 -135 -8 -280 -9 -243 0 -265
-1 -281 -18 -17 -18 -162 -362 -175 -417 -11 -42 19 -47 295 -47 l248 0 -56
-139 c-50 -124 -58 -140 -81 -143 -14 -2 -215 -3 -446 -3 -467 0 -464 0 -505
68 -34 56 -31 68 180 572 116 278 134 316 156 341 33 35 88 72 122 81 18 4
238 8 490 8 397 -1 457 -2 454 -15z"/>
<path d="M2146 1418 c-14 -35 -50 -121 -80 -193 l-53 -130 -289 -3 -289 -3
-64 -156 c-35 -86 -66 -163 -68 -172 -4 -14 25 -16 282 -13 l286 3 -15 -28
c-7 -15 -55 -126 -105 -247 -78 -188 -91 -226 -91 -275 0 -64 27 -121 73 -155
28 -20 38 -21 420 -21 l392 0 53 34 c78 50 112 102 196 299 41 97 90 214 110
260 l35 82 -258 0 -258 0 -69 -162 c-64 -149 -92 -194 -110 -175 -5 4 26 92
67 195 l76 187 287 5 287 5 75 170 c41 93 74 170 74 170 0 0 -130 -1 -289 -3
l-290 -3 36 88 c20 48 55 136 78 196 l43 107 -258 0 -258 0 -26 -62z m442
-134 c-54 -134 -69 -180 -61 -193 9 -14 44 -16 278 -19 236 -2 266 -4 261 -18
-21 -55 -111 -261 -118 -270 -5 -7 -75 -11 -205 -12 -109 0 -235 -1 -281 -1
l-83 -1 -33 -72 c-18 -40 -55 -128 -81 -196 -51 -128 -52 -152 -11 -160 31 -6
54 27 106 156 29 70 59 139 66 154 l14 26 230 -1 c126 -1 230 -4 230 -7 0 -9
-164 -397 -191 -450 -30 -62 -91 -130 -141 -157 -30 -16 -66 -18 -413 -18
-377 0 -380 0 -411 22 -17 13 -39 38 -48 57 -33 69 -24 109 85 371 85 203 100
247 89 260 -11 13 -52 15 -276 15 -145 0 -264 2 -264 4 0 10 113 272 122 283
7 9 80 12 285 12 220 -1 278 1 288 12 8 8 41 83 75 168 34 85 68 167 76 183
l15 28 233 0 234 0 -70 -176z"/>
</g>
</svg>
