<?xml version="1.0" standalone="no"?>
<!DOCTYPE svg PUBLIC "-//W3C//DTD SVG 20010904//EN"
 "http://www.w3.org/TR/2001/REC-SVG-20010904/DTD/svg10.dtd">
<svg version="1.0" xmlns="http://www.w3.org/2000/svg"
 width="900.000000pt" height="900.000000pt" viewBox="0 0 900.000000 900.000000"
 preserveAspectRatio="xMidYMid meet">
<metadata>
Created by potrace 1.10, written by Peter Selinger 2001-2011
</metadata>
<g transform="translate(0.000000,900.000000) scale(0.100000,-0.100000)"
fill="#000000" stroke="none">
<path d="M237 8843 c-15 -2 -43 -20 -62 -38 -27 -27 -35 -45 -40 -87 -3 -29
-5 -1952 -3 -4273 3 -4013 4 -4222 21 -4248 9 -15 29 -35 44 -44 26 -17 234
-18 4293 -18 4059 0 4267 1 4293 18 15 9 35 29 44 44 17 26 18 234 18 4293 0
4059 -1 4267 -18 4293 -9 15 -29 35 -44 44 -26 17 -234 18 -4273 19 -2335 1
-4258 -1 -4273 -3z m7977 -282 c4 -5 -477 -331 -1066 -724 -590 -394 -1078
-724 -1085 -735 -13 -22 -85 -158 -174 -330 -93 -179 -146 -280 -226 -432 -39
-74 -103 -198 -143 -275 -40 -77 -95 -183 -123 -235 -27 -52 -77 -147 -110
-210 -33 -63 -95 -182 -137 -265 -43 -82 -98 -188 -123 -235 -24 -47 -74 -143
-112 -215 -37 -71 -96 -184 -130 -250 -34 -66 -82 -156 -105 -200 -23 -44 -76
-145 -118 -225 -41 -80 -92 -179 -114 -220 -21 -41 -45 -80 -53 -86 -8 -6 -50
-16 -92 -23 -159 -24 -271 -41 -373 -56 -58 -8 -150 -22 -205 -31 -216 -33
-284 -43 -395 -59 -63 -9 -155 -23 -205 -30 -100 -16 -237 -36 -395 -60 -58
-8 -150 -22 -205 -31 -55 -8 -140 -21 -190 -29 -49 -7 -124 -19 -165 -25 -41
-7 -104 -16 -140 -20 -67 -7 -143 -19 -314 -48 -83 -14 -104 -22 -135 -48
l-36 -32 -3 -847 -2 -847 -554 -554 c-304 -305 -558 -554 -564 -554 -9 0 -12
957 -12 3963 0 2180 3 3967 7 3970 10 11 7791 8 7797 -2z m354 -4148 l-3
-3998 -3967 -3 c-2877 -1 -3968 1 -3968 9 0 6 259 270 577 587 317 317 584
590 595 607 17 28 18 72 18 827 0 529 3 799 10 803 6 4 45 10 88 15 42 5 109
14 147 20 39 6 115 18 170 26 55 8 136 22 180 30 44 8 93 14 109 14 16 0 70 7
120 15 50 9 132 22 181 30 50 7 124 19 165 26 41 6 102 15 135 19 33 5 94 13
135 20 41 6 120 18 175 26 55 8 141 21 190 29 188 30 242 38 300 45 33 4 94
13 135 19 41 7 120 19 175 27 314 47 346 56 379 115 10 19 46 88 81 154 34 66
93 179 130 250 66 125 120 229 255 488 33 66 82 158 107 205 25 48 74 141 108
207 34 66 92 176 127 245 36 69 86 164 111 212 25 47 74 139 107 205 135 259
189 364 255 488 37 72 94 180 125 240 32 61 88 169 125 240 38 72 83 160 101
196 33 64 47 82 84 104 10 5 52 32 92 60 40 27 81 54 90 60 9 5 70 46 135 90
65 44 126 84 135 90 10 5 75 49 145 96 234 157 274 184 291 194 9 6 53 35 97
65 44 30 88 59 97 65 9 5 110 73 225 150 114 77 213 142 218 145 6 3 63 41
128 85 65 44 129 87 142 95 13 8 115 76 227 152 149 100 205 133 211 123 4 -7
6 -1813 5 -4012z"/>
<path d="M2335 8278 c-22 -8 -294 -242 -335 -288 -3 -3 -77 -71 -165 -150 -88
-80 -162 -147 -165 -150 -3 -3 -50 -45 -105 -95 -55 -49 -124 -112 -154 -140
-62 -58 -48 -45 -176 -159 -84 -75 -163 -149 -219 -202 -6 -6 -56 -50 -111
-99 -171 -152 -191 -173 -204 -216 -9 -31 -9 -49 0 -77 15 -49 34 -69 86 -92
l43 -19 -2 -698 -3 -698 -32 -10 c-51 -17 -81 -52 -93 -109 -8 -33 -10 -152
-8 -336 3 -310 5 -323 61 -364 l28 -21 1587 -3 c1204 -2 1594 1 1616 10 15 6
41 29 57 51 l29 40 0 314 c0 213 -4 321 -11 336 -20 39 -61 76 -90 82 -16 4
-34 15 -39 25 -7 12 -9 260 -8 697 l3 678 50 26 c94 48 121 130 67 205 -16 21
-49 57 -73 78 -24 21 -67 60 -94 85 -28 25 -73 66 -100 90 -28 25 -97 88 -154
140 -116 107 -108 100 -176 160 -39 35 -180 163 -269 246 -6 6 -56 50 -111
100 -55 49 -105 94 -111 100 -82 77 -135 125 -219 200 -55 49 -122 110 -150
135 -98 92 -130 117 -164 128 -40 14 -46 14 -86 0z m86 -355 c13 -16 64 -63
263 -243 79 -71 136 -122 150 -136 6 -5 63 -57 126 -114 158 -143 190 -173
209 -191 9 -8 66 -60 126 -114 61 -55 130 -118 155 -141 25 -23 56 -51 69 -61
14 -11 21 -25 17 -31 -9 -15 -2283 -17 -2305 -3 -14 9 26 50 169 176 30 27 57
51 60 54 3 4 97 90 210 191 113 101 207 187 210 190 3 4 57 53 120 110 63 57
158 142 210 190 143 131 153 139 175 140 11 0 27 -8 36 -17z m-1033 -1335 c17
-17 17 -1369 0 -1386 -8 -8 -53 -12 -135 -12 -107 0 -123 2 -131 18 -10 21 -9
1363 2 1380 10 17 247 17 264 0z m1687 -693 l0 -700 -124 -3 c-68 -1 -128 1
-134 7 -5 5 -9 222 -10 507 -2 483 -3 500 -23 534 -11 19 -35 45 -54 57 -32
23 -38 23 -351 23 l-317 0 -43 -33 c-24 -18 -46 -44 -50 -57 -4 -14 -7 -248
-8 -520 -1 -371 -4 -499 -13 -508 -8 -8 -51 -12 -129 -12 -94 0 -121 3 -133
16 -14 14 -16 90 -16 694 0 636 1 680 18 689 11 7 249 10 702 8 l685 -2 0
-700z m563 693 c9 -9 12 -176 12 -689 0 -373 -3 -684 -6 -693 -5 -13 -26 -16
-130 -16 -109 0 -124 2 -136 19 -11 15 -13 147 -13 696 1 584 3 677 15 685 23
15 244 12 258 -2z m-1130 -560 c14 -14 17 -804 4 -826 -7 -9 -41 -12 -138 -10
l-129 3 -3 410 c-1 225 0 416 3 422 6 18 246 18 263 1z m1280 -1249 c2 -98 -1
-129 -11 -138 -11 -8 -368 -10 -1403 -9 l-1389 3 -3 138 -3 137 1403 -2 1403
-3 3 -126z"/>
<path d="M4654 8276 c-220 -37 -410 -179 -513 -383 -124 -244 -82 -567 99
-767 103 -114 178 -162 343 -221 l47 -17 0 -621 c0 -342 4 -627 8 -634 5 -7
52 -13 137 -15 l130 -3 3 637 2 636 48 17 c212 76 325 163 419 324 48 82 60
114 83 226 24 111 24 145 4 243 -63 316 -285 533 -592 581 -86 13 -123 13
-218 -3z m253 -294 c110 -39 192 -113 245 -222 30 -61 32 -72 32 -175 1 -127
-10 -163 -81 -257 -61 -80 -112 -115 -217 -149 -106 -34 -237 -16 -338 47 -89
56 -160 153 -184 254 -35 147 0 279 104 391 49 54 108 91 192 122 37 14 197 7
247 -11z"/>
<path d="M6384 4042 c-21 -16 -45 -40 -52 -53 -9 -18 -13 -174 -15 -674 l-2
-650 -1220 -5 c-1156 -5 -1221 -6 -1247 -23 -55 -38 -58 -56 -58 -397 0 -264
2 -317 16 -345 26 -55 57 -69 164 -75 l95 -5 5 -560 5 -560 125 -3 c109 -2
126 -1 138 15 10 14 12 132 12 557 -1 296 3 543 8 548 4 4 447 7 983 6 l974
-3 5 -518 5 -517 27 -34 c18 -23 41 -37 72 -45 32 -8 291 -11 884 -11 901 0
899 0 942 50 41 47 41 44 38 1665 -3 1736 3 1599 -73 1642 l-40 23 -876 0
-876 0 -39 -28z m1611 -677 l0 -420 -689 -3 c-380 -1 -694 2 -698 6 -5 5 -9
193 -8 417 0 312 3 411 13 417 6 4 320 7 697 5 l685 -2 0 -420z m5 -1545 l0
-840 -700 0 -700 0 -2 828 c-2 455 -1 833 1 840 2 9 151 12 702 12 l699 0 0
-840z m-3312 551 c4 -13 -205 -231 -249 -259 -22 -15 -49 -16 -195 -12 l-169
5 0 135 0 135 295 5 c344 6 313 7 318 -9z m1627 -131 l0 -135 -300 -5 c-165
-3 -307 -2 -315 2 -11 5 19 41 115 138 72 73 138 135 147 138 9 4 92 5 185 2
l168 -5 0 -135z m-785 127 c0 -7 -58 -70 -128 -140 l-129 -127 -211 0 c-117 0
-212 4 -212 9 0 5 59 68 132 140 l132 131 208 0 c164 0 208 -3 208 -13z"/>
<path d="M6884 3487 c-2 -7 -3 -67 -2 -133 l3 -119 420 0 420 0 0 130 0 130
-418 3 c-338 2 -419 0 -423 -11z"/>
</g>
</svg>
