<?xml version="1.0" encoding="utf-8"?>
<!-- Generator: Adobe Illustrator 25.1.0, SVG Export Plug-In . SVG Version: 6.00 Build 0)  -->
<svg version="1.1" id="Layer_1" xmlns="http://www.w3.org/2000/svg" xmlns:xlink="http://www.w3.org/1999/xlink" x="0px" y="0px"
	 viewBox="0 0 100 100" style="enable-background:new 0 0 100 100;" xml:space="preserve">
<style type="text/css">
	.st0{fill:none;stroke:#0071BC;stroke-width:2;stroke-miterlimit:10;}
</style>
<path class="st0" d="M60.77,74.56L43.08,48.37c-0.37,0.44-0.93,0.78-1.7,0.93c-7.4,5.23-7.66,9.21-7.18,17.47
	c1.24,5.84-4.52,6.19-4.78,2.04c0.13-3.57-0.71-10.44,1.02-13.95c2.49-5.3,4.5-7.35,10-10.4l-2.42-3.58
	c-2.07-0.01-4.31,0.02-4.75,0.01c-1.46,3.27-5.64,2.82-5.82-2.65c0,0-0.63-1.04-0.63-1.04v-5.07h7.35l0.01,4.23
	c0.23-0.06,0.66-0.12,1.14-0.16l1.33-5.64l-18.17-0.15c-3.17,0.03-3.25-4.8-0.07-4.86c0,0,12.33,0.1,19.38,0.16l2.77-11.69L16.81,8
	l-1.29,6.33h-2.77L12.1,18.5l0.81,8.34l2.6,8.03l1.95,6.79l1.63,7.1l-1.14,5.87l4.56,7.26l-0.49,5.25l1.95,1.7l12.69,10.19l2.6,4.48
	v5.1l15.62,1.7l0.62,1.53l2.8-1.84l-1.14-1.08l2.93-7.57l2.6-1.24l-1.95-2.83V74.56z M34.83,24.22h-8.31
	C26.54,18.79,34.8,18.79,34.83,24.22z"/>
<path d="M73.25,24.12c0.02-5.43,8.28-5.43,8.31,0"/>
<path d="M65.35,30.35c-3.17,0.03-3.25-4.8-0.07-4.86c0,0,24.19,0.2,24.19,0.2c3.17,0.06,3.11,4.89-0.07,4.86"/>
<path d="M53.36,52.29H59l0.32-0.48l0.63-0.47v-2.43c0,0,0.63-2.43,0.63-2.43c0.75-1.37,2.1-2.98,3.21-4.06c0,0,1.96-1.42,1.96-1.42
	c0.36-0.28,7.84-0.15,8.48-0.18c-0.32-0.75-0.52-1.83-0.53-2.64c-0.06,5.87,6.1,6.66,6.31,0c0,0,0.63-1.04,0.63-1.04v-5.07
	c0,0-7.35,0-7.35,0s-0.01,4.23-0.01,4.23c-0.59-0.16-2.5-0.26-3.13-0.31c-0.62-0.16-1.9-0.57-2.51-0.78c0,0-1.88-0.63-1.88-0.63
	c-2.56-1.44-5.82-2.07-8.71-2.51c0,0-3.59,0-3.59,0S53.36,52.29,53.36,52.29z"/>
<path d="M66.91,49.28c-3.55-0.67-2.67-5.5,0.9-4.85c5.53,3.06,7.54,5.1,10.04,10.42c1.73,3.5,0.89,10.38,1.02,13.95
	c-0.26,4.15-6.02,3.8-4.78-2.04C74.57,58.48,74.3,54.51,66.91,49.28z"/>
<path d="M36.99,36.02c0.62-0.16,1.9-0.57,2.51-0.78c0,0,1.88-0.63,1.88-0.63c2.56-1.44,5.82-2.07,8.71-2.51c0,0,3.59,0,3.59,0
	s0.08,20.22,0.08,20.22h-5.63l-0.32-0.48l-0.63-0.47v-2.43c0,0-0.63-2.43-0.63-2.43c-0.75-1.37-2.1-2.98-3.21-4.06
	c0,0-1.96-1.42-1.96-1.42c-0.11-0.09-0.94-0.14-2.03-0.16"/>
</svg>
